# This file uses centimeters as units for non-parametric coordinates.

v 5.000000 10.000000 -5.000000
v -5.000000 0.000000 -5.000000
v 5.000000 0.000000 -5.000000
v -5.000000 10.000000 -5.000000
v -2.898088 5.090740 -0.129843
v -1.684774 5.090738 -3.450665
v -3.951843 5.090739 -2.396912
v -0.631020 0.090739 -1.183595
v -0.631020 5.090739 -1.183595
v -2.898089 0.090740 -0.129842
v 1.358056 0.056445 -0.412586
v 0.739878 0.056445 1.489480
v 1.358056 2.056445 -0.412586
v 3.260122 0.056445 0.205592
v 3.260122 2.056445 0.205592
v 0.739878 2.056445 1.489480
v -5.000000 0.000000 5.000000
v 5.000000 0.000000 5.000000
v -5.000000 10.000000 5.000000
v 2.641944 0.056445 2.107658
v 2.641944 2.056445 2.107658
v 5.000000 10.000000 5.000000
v -3.951843 0.090740 -2.396911
v -1.684775 0.090739 -3.450664
vt 0.418113 0.581887
vt 0.627169 0.790944
vt 0.627170 0.581887
vt 0.418113 0.790944
vt 0.878723 0.271256
vt 1.000000 0.150000
vt 0.999991 0.271264
vt 0.757462 0.513956
vt 0.636199 0.271264
vt 0.757462 0.271256
vt 0.878726 0.513956
vt 0.878729 0.149993
vt 0.000000 0.343565
vt 0.000000 0.229043
vt 0.114522 0.343565
vt 0.343565 0.229043
vt 0.343565 0.114521
vt 0.458087 0.229043
vt 0.229043 0.229043
vt 0.229043 0.114522
vt 0.114522 0.229043
vt 0.836226 0.790943
vt 0.836226 0.581887
vt -0.000000 0.790944
vt 0.209057 1.000000
vt 0.209056 0.790944
vt 0.458087 0.114522
vt 0.000000 0.114522
vt 0.114522 0.114522
vt 0.000000 0.000000
vt 0.114522 0.000000
vt -0.000000 0.581887
vt 0.209056 0.581887
vt 0.000000 0.372830
vt 0.209056 0.372830
vt 0.999989 0.513948
vt 0.636198 0.513948
vt 0.514935 0.271264
vt 0.000000 1.000000
vt 0.878733 0.635220
vt 0.514935 0.513948
vt 0.999997 0.635212
vn 0.000000 0.000000 1.000000
vn 0.000000 0.000000 1.000000
vn 0.000000 0.000000 1.000000
vn 0.000000 0.000000 1.000000
vn 0.000000 1.000000 -0.000000
vn 0.000000 1.000000 -0.000000
vn 0.000000 1.000000 -0.000000
vn 0.906828 -0.000000 -0.421502
vn 0.906828 -0.000000 -0.421502
vn 0.906828 -0.000000 -0.421502
vn 0.421501 0.000000 0.906828
vn 0.421501 0.000000 0.906828
vn 0.421501 -0.000000 0.906828
vn 0.000000 1.000000 0.000000
vn -0.951033 0.000000 -0.309089
vn -0.951033 0.000000 -0.309089
vn -0.951033 0.000000 -0.309089
vn 0.000000 -1.000000 0.000000
vn 0.000000 -1.000000 -0.000000
vn 0.000000 -1.000000 -0.000000
vn 0.309089 0.000000 -0.951033
vn 0.309089 0.000000 -0.951033
vn 0.309089 0.000000 -0.951033
vn -0.951033 0.000000 -0.309089
vn 0.000000 1.000000 0.000000
vn 0.000000 1.000000 0.000000
vn 0.000000 1.000000 0.000000
vn 1.000000 0.000000 0.000000
vn 1.000000 0.000000 0.000000
vn 1.000000 0.000000 0.000000
vn 0.309089 0.000000 -0.951033
vn 0.000000 -1.000000 -0.000000
vn -0.309089 0.000000 0.951033
vn -0.309089 0.000000 0.951033
vn -0.309089 0.000000 0.951033
vn 0.000000 1.000000 -0.000000
vn 0.000000 1.000000 -0.000000
vn 0.000000 1.000000 -0.000000
vn 0.951033 0.000000 0.309089
vn 0.951033 0.000000 0.309089
vn 0.951033 0.000000 0.309089
vn 0.000000 1.000000 0.000000
vn 0.951033 0.000000 0.309089
vn -0.309089 0.000000 0.951033
vn 0.000000 0.000000 -1.000000
vn 0.000000 0.000000 -1.000000
vn 0.000000 0.000000 -1.000000
vn 0.000000 -1.000000 0.000000
vn 0.000000 -1.000000 0.000000
vn 0.000000 -1.000000 0.000000
vn -1.000000 0.000000 0.000000
vn -1.000000 0.000000 0.000000
vn -1.000000 0.000000 0.000000
vn -1.000000 0.000000 0.000000
vn 0.000000 -1.000000 0.000000
vn 0.000000 0.000000 -1.000000
vn 0.421501 0.000000 0.906828
vn -0.906828 0.000000 0.421502
vn -0.906828 0.000000 0.421502
vn -0.906828 0.000000 0.421502
vn -0.421501 -0.000000 -0.906828
vn -0.421501 -0.000000 -0.906828
vn -0.421501 -0.000000 -0.906828
vn 0.906828 -0.000000 -0.421502
vn -0.906828 0.000000 0.421502
vn 0.000000 1.000000 0.000000
vn 1.000000 0.000000 0.000000
vn -0.000000 -1.000000 0.000000
vn -0.000000 -1.000000 0.000000
vn -0.000000 -1.000000 0.000000
vn -0.421501 -0.000000 -0.906828
vn -0.000000 -1.000000 0.000000
f 1/1/1 2/2/2 3/3/3
f 4/4/4 2/2/2 1/1/1
f 5/5/5 6/6/6 7/7/7
f 8/8/8 6/9/9 9/10/10
f 10/11/11 9/10/12 5/5/13
f 9/12/14 6/6/6 5/5/5
f 11/13/15 12/14/16 13/15/17
f 11/16/18 14/17/19 12/18/20
f 13/19/21 15/20/22 11/16/23
f 13/15/17 12/14/16 16/21/24
f 3/3/25 17/22/26 18/23/27
f 17/24/28 4/25/29 19/26/30
f 11/16/23 15/20/22 14/17/31
f 12/18/20 14/17/19 20/27/32
f 12/14/33 20/28/34 16/21/35
f 16/21/36 21/29/37 13/19/38
f 20/28/39 14/30/40 21/29/41
f 13/19/38 21/29/37 15/20/42
f 21/29/41 14/30/40 15/31/43
f 16/21/35 20/28/34 21/29/44
f 17/24/45 19/26/46 18/32/47
f 22/33/48 4/4/49 1/1/50
f 3/34/51 22/33/52 1/35/53
f 18/32/54 22/33/52 3/34/51
f 19/26/55 4/4/49 22/33/48
f 18/32/47 19/26/46 22/33/56
f 8/8/57 9/10/12 10/11/11
f 23/36/58 5/5/59 7/7/60
f 24/37/61 7/38/62 6/9/63
f 24/37/64 6/9/9 8/8/8
f 10/11/65 5/5/59 23/36/58
f 2/2/66 17/22/26 3/3/25
f 2/39/67 4/25/29 17/24/28
f 23/36/68 8/40/69 10/11/70
f 23/41/71 7/38/62 24/37/61
f 24/42/72 8/40/69 23/36/68
