# This file uses centimeters as units for non-parametric coordinates.

v 2.271595 -1.619403 2.211402
v 1.151356 -1.686172 -1.287227
v -0.037887 -1.609813 1.021403
v 2.228098 -4.216321 2.274890
v 3.417341 -4.292680 -0.033739
v 3.460838 -1.695763 -0.097227
v 5.000000 -5.000000 5.000000
v 5.000000 5.000000 -5.000000
v 5.000000 -5.000000 -5.000000
v -5.000000 5.000000 -5.000000
v 5.000000 5.000000 5.000000
v -5.000000 5.000000 5.000000
v -0.081385 -4.206730 1.084891
v 1.107858 -4.283089 -1.223739
v -5.000000 -5.000000 5.000000
v -0.631020 0.015714 -1.183595
v -1.684774 0.015713 -3.450665
v -2.898088 0.015714 -0.129843
v -2.898089 -4.984285 -0.129842
v -0.631020 -4.984286 -1.183595
v -3.951843 0.015714 -2.396912
v -5.000000 -5.000000 -5.000000
v -3.951843 -4.984286 -2.396911
v -1.684775 -4.984286 -3.450664
vt 0.287259 0.712170
vt 0.147639 0.851790
vt 0.147639 0.712170
vt 0.426879 0.991410
vt 0.287259 0.991410
vt 0.426879 0.851790
vt 0.287259 0.572550
vt 0.287259 0.851790
vt 0.324655 0.000284
vt 0.046423 0.278517
vt 0.324655 0.278517
vt 0.602888 0.556749
vt 0.324655 0.834981
vt 0.602888 0.834981
vt 0.324655 0.556749
vt 0.046423 0.000284
vt 0.147639 0.572550
vt 0.147639 0.991410
vt 0.287259 0.432930
vt 0.602888 0.000284
vt 0.008019 0.991410
vt 0.008019 0.851790
vt 0.147639 0.432930
vt 0.562415 0.849446
vt 0.562423 0.991312
vt 0.704272 0.849440
vt 0.988189 0.849442
vt 0.704272 0.707585
vt 0.988189 0.707586
vt 0.704281 0.565728
vt 0.704281 0.991302
vt 0.602888 0.278517
vt 0.881120 0.000284
vt 0.881120 0.278517
vt 0.988180 0.991300
vt 0.988180 0.565728
vt 0.704281 0.423871
vt 0.988180 0.423871
vn 0.016742 0.999561 -0.024437
vn 0.016742 0.999561 -0.024437
vn 0.016742 0.999561 -0.024437
vn 0.888927 -0.003691 0.458035
vn 0.888927 -0.003691 0.458035
vn 0.888927 -0.003691 0.458034
vn -0.457743 0.029391 0.888599
vn -0.457743 0.029391 0.888599
vn -0.457743 0.029391 0.888599
vn 0.016742 0.999561 -0.024437
vn 0.888927 -0.003691 0.458034
vn -1.000000 0.000000 0.000000
vn -1.000000 0.000000 0.000000
vn -1.000000 0.000000 0.000000
vn 0.000000 -1.000000 0.000000
vn 0.000000 -1.000000 0.000000
vn 0.000000 -1.000000 0.000000
vn 0.000000 -1.000000 0.000000
vn -1.000000 0.000000 0.000000
vn -0.457743 0.029391 0.888598
vn 0.457743 -0.029391 -0.888599
vn 0.457743 -0.029391 -0.888599
vn 0.457743 -0.029391 -0.888599
vn -0.016742 -0.999561 0.024437
vn -0.016742 -0.999561 0.024437
vn -0.016742 -0.999561 0.024437
vn 0.457743 -0.029391 -0.888599
vn 0.000000 1.000000 0.000000
vn 0.000000 1.000000 0.000000
vn 0.000000 1.000000 0.000000
vn -0.888927 0.003691 -0.458034
vn -0.888927 0.003691 -0.458034
vn -0.888927 0.003691 -0.458035
vn -0.016742 -0.999561 0.024437
vn -0.888927 0.003691 -0.458034
vn 0.000000 1.000000 -0.000000
vn 0.000000 1.000000 -0.000000
vn 0.000000 1.000000 -0.000000
vn 0.421501 0.000000 0.906828
vn 0.421501 0.000000 0.906828
vn 0.421501 -0.000000 0.906828
vn 0.906828 -0.000000 -0.421502
vn 0.906828 -0.000000 -0.421502
vn 0.906828 -0.000000 -0.421502
vn 0.000000 1.000000 -0.000000
vn 1.000000 0.000000 0.000000
vn 1.000000 0.000000 0.000000
vn 1.000000 0.000000 0.000000
vn 0.000000 0.000000 1.000000
vn 0.000000 0.000000 1.000000
vn 0.000000 0.000000 1.000000
vn 0.000000 0.000000 1.000000
vn 1.000000 0.000000 0.000000
vn 0.421501 0.000000 0.906828
vn -0.906828 0.000000 0.421502
vn -0.906828 0.000000 0.421502
vn -0.906828 0.000000 0.421502
vn -0.421501 -0.000000 -0.906828
vn -0.421501 -0.000000 -0.906828
vn -0.421501 -0.000000 -0.906828
vn 0.906828 -0.000000 -0.421502
vn -0.906828 0.000000 0.421501
vn 0.000000 1.000000 0.000000
vn -0.421501 -0.000000 -0.906828
f 1/1/1 2/2/2 3/3/3
f 4/4/4 5/5/5 1/6/6
f 1/1/7 3/3/8 4/7/9
f 6/8/10 2/2/2 1/1/1
f 1/6/6 5/5/5 6/8/11
f 7/9/12 8/10/13 9/11/14
f 10/12/15 11/13/16 12/14/17
f 8/15/18 11/13/16 10/12/15
f 11/16/19 8/10/13 7/9/12
f 4/7/9 3/3/8 13/17/20
f 5/5/21 14/18/22 6/8/23
f 4/7/24 13/17/25 5/19/26
f 6/8/23 14/18/22 2/2/27
f 7/9/28 9/11/29 15/20/30
f 2/2/31 13/21/32 3/22/33
f 5/19/26 13/17/25 14/23/34
f 14/18/35 13/21/32 2/2/31
f 16/24/36 17/25/37 18/26/38
f 19/27/39 16/28/40 18/26/41
f 20/29/42 17/30/43 16/28/44
f 18/26/38 17/25/37 21/31/45
f 15/20/46 22/32/47 12/33/48
f 9/11/49 8/15/50 22/32/51
f 22/32/51 8/15/50 10/12/52
f 12/33/48 22/32/47 10/34/53
f 20/29/54 16/28/40 19/27/39
f 23/35/55 18/26/56 21/31/57
f 24/36/58 21/37/59 17/30/60
f 24/36/61 17/30/43 20/29/42
f 19/27/62 18/26/56 23/35/55
f 15/20/30 9/11/29 22/32/63
f 23/38/64 21/37/59 24/36/58
