# This file uses centimeters as units for non-parametric coordinates.

v 1.299029 -2.407331 -1.233375
v -1.299029 -2.407331 -1.233375
v -1.299029 0.189746 -1.304732
v 1.299029 0.189746 -1.304732
v -1.299029 -2.335974 1.363702
v -1.299029 0.261104 1.292345
v 1.299029 0.261104 1.292345
v 5.000000 5.013053 -4.986913
v 5.000000 4.986913 5.013053
v -5.000000 4.986913 5.013053
v -5.000000 5.013053 -4.986913
v -5.000000 -5.013053 4.986913
v -5.000000 -4.986913 -5.013053
v 5.000000 -4.986913 -5.013053
v 1.299029 -2.335974 1.363702
v 5.000000 -5.013053 4.986913
vt 0.250000 1.000000
vt 0.125000 1.000000
vt 0.125000 0.875000
vt 0.250000 0.875000
vt 0.000000 1.000000
vt 0.000000 0.875000
vt 0.125000 0.750000
vt 0.250000 0.750000
vt 0.265897 0.438505
vt 0.265897 0.657757
vt 0.485150 0.657757
vt 0.485150 0.438505
vt 0.485150 0.000000
vt 0.485150 0.219252
vt 0.704402 0.219252
vt 0.704402 0.000000
vt 0.265897 0.219252
vt 0.375000 1.000000
vt 0.375000 0.875000
vt 0.250000 0.625000
vt 0.125000 0.625000
vt 0.125000 0.500000
vt 0.250000 0.500000
vt 0.265897 0.000000
vt 0.046645 0.000000
vt 0.046645 0.219252
vn 0.000000 -0.027466 -0.999623
vn 0.000000 -0.027466 -0.999623
vn 0.000000 -0.027466 -0.999623
vn 0.000000 -0.027466 -0.999623
vn -1.000000 0.000000 -0.000000
vn -1.000000 0.000000 -0.000000
vn -1.000000 0.000000 -0.000000
vn -1.000000 0.000000 -0.000000
vn 0.000000 0.999623 -0.027466
vn 0.000000 0.999623 -0.027466
vn 0.000000 0.999623 -0.027466
vn 0.000000 0.999623 -0.027466
vn 0.000000 -0.999997 -0.002614
vn 0.000000 -0.999997 -0.002614
vn 0.000000 -0.999997 -0.002614
vn 0.000000 -0.999997 -0.002614
vn 1.000000 0.000000 -0.000000
vn 1.000000 0.000000 -0.000000
vn 1.000000 0.000000 -0.000000
vn 1.000000 0.000000 0.000000
vn -0.000000 -0.002614 0.999997
vn -0.000000 -0.002614 0.999997
vn -0.000000 -0.002614 0.999997
vn -0.000000 -0.002614 0.999997
vn 1.000000 0.000000 0.000000
vn 1.000000 0.000000 0.000000
vn 1.000000 0.000000 0.000000
vn 1.000000 0.000000 0.000000
vn -0.000000 -0.999623 0.027466
vn -0.000000 -0.999623 0.027466
vn -0.000000 -0.999623 0.027466
vn -0.000000 -0.999623 0.027466
vn -0.000000 0.027466 0.999623
vn -0.000000 0.027466 0.999623
vn -0.000000 0.027466 0.999623
vn -0.000000 0.027466 0.999623
vn -0.000000 0.999997 0.002614
vn -0.000000 0.999997 0.002614
vn -0.000000 0.999997 0.002614
vn -0.000000 0.999997 0.002614
vn -1.000000 0.000000 -0.000000
vn -1.000000 0.000000 -0.000000
vn -1.000000 0.000000 -0.000000
vn -1.000000 0.000000 -0.000000
f 1/1/1 2/2/2 4/4/3
f 4/4/3 2/2/2 3/3/4
f 2/2/5 5/5/6 3/3/7
f 3/3/7 5/5/6 6/6/8
f 4/4/9 3/3/10 7/8/11
f 7/8/11 3/3/10 6/7/12
f 8/9/13 9/10/14 11/12/15
f 11/12/15 9/10/14 10/11/16
f 12/13/17 13/14/18 10/16/19
f 10/16/19 13/14/18 11/15/20
f 14/17/21 8/9/22 13/14/23
f 13/14/23 8/9/22 11/12/24
f 15/18/25 1/1/26 7/19/27
f 7/19/27 1/1/26 4/4/28
f 15/20/29 5/21/30 1/23/31
f 1/23/31 5/21/30 2/22/32
f 7/8/33 6/7/34 15/20/35
f 15/20/35 6/7/34 5/21/36
f 16/24/37 14/17/38 12/13/39
f 12/13/39 14/17/38 13/14/40
f 9/25/41 8/26/42 16/24/43
f 16/24/43 8/26/42 14/17/44
